<svg width="797" height="236" viewBox="0 0 797 236" fill="none" xmlns="http://www.w3.org/2000/svg">
<rect width="797" height="236" fill="white"/>
<rect width="223" height="236" rx="35" fill="url(#paint0_linear_2_23)"/>
<path d="M195.5 108V47.5C195.5 39.2157 188.784 32.5 180.5 32.5H45.5C37.2157 32.5 30.5 39.2157 30.5 47.5V175.5C30.5 183.784 37.2157 190.5 45.5 190.5H143" stroke="black" stroke-width="10" stroke-linecap="round"/>
<path d="M311.892 141H288.689V75.5455H312.084C318.668 75.5455 324.335 76.8558 329.087 79.4766C333.838 82.076 337.492 85.8153 340.049 90.6946C342.627 95.5739 343.916 101.412 343.916 108.209C343.916 115.027 342.627 120.886 340.049 125.787C337.492 130.687 333.817 134.448 329.023 137.069C324.25 139.69 318.54 141 311.892 141ZM302.528 129.143H311.317C315.408 129.143 318.849 128.418 321.64 126.969C324.452 125.499 326.562 123.23 327.968 120.162C329.396 117.072 330.109 113.088 330.109 108.209C330.109 103.372 329.396 99.4197 327.968 96.3516C326.562 93.2834 324.463 91.0249 321.672 89.576C318.881 88.1271 315.44 87.4027 311.349 87.4027H302.528V129.143ZM367.91 141.927C364.778 141.927 361.987 141.384 359.537 140.297C357.086 139.189 355.148 137.559 353.72 135.407C352.314 133.234 351.611 130.528 351.611 127.289C351.611 124.562 352.111 122.271 353.113 120.418C354.114 118.564 355.478 117.072 357.204 115.943C358.93 114.814 360.89 113.962 363.084 113.386C365.3 112.811 367.623 112.406 370.052 112.172C372.907 111.874 375.208 111.597 376.955 111.341C378.702 111.064 379.97 110.659 380.758 110.126C381.547 109.594 381.941 108.805 381.941 107.761V107.57C381.941 105.545 381.302 103.979 380.023 102.871C378.766 101.763 376.976 101.21 374.654 101.21C372.204 101.21 370.254 101.753 368.805 102.839C367.356 103.905 366.398 105.247 365.929 106.866L353.336 105.844C353.976 102.861 355.233 100.283 357.108 98.1094C358.983 95.9148 361.401 94.2315 364.363 93.0597C367.346 91.8665 370.797 91.2699 374.718 91.2699C377.445 91.2699 380.055 91.5895 382.548 92.2287C385.062 92.8679 387.289 93.8587 389.228 95.201C391.188 96.5433 392.733 98.2692 393.862 100.379C394.991 102.467 395.556 104.97 395.556 107.889V141H382.644V134.192H382.26C381.472 135.727 380.417 137.08 379.096 138.251C377.775 139.402 376.188 140.308 374.334 140.968C372.481 141.607 370.339 141.927 367.91 141.927ZM371.809 132.531C373.812 132.531 375.581 132.136 377.115 131.348C378.649 130.538 379.853 129.452 380.726 128.088C381.6 126.724 382.037 125.18 382.037 123.454V118.244C381.611 118.521 381.025 118.777 380.279 119.011C379.555 119.224 378.734 119.427 377.818 119.619C376.902 119.789 375.986 119.949 375.069 120.098C374.153 120.226 373.322 120.343 372.577 120.45C370.979 120.684 369.583 121.057 368.39 121.568C367.197 122.08 366.27 122.772 365.609 123.646C364.949 124.498 364.618 125.563 364.618 126.842C364.618 128.695 365.29 130.112 366.632 131.092C367.996 132.051 369.721 132.531 371.809 132.531ZM432.23 91.9091V102.136H402.667V91.9091H432.23ZM409.379 80.1477H422.994V125.915C422.994 127.172 423.186 128.152 423.569 128.855C423.953 129.537 424.485 130.016 425.167 130.293C425.87 130.57 426.68 130.709 427.596 130.709C428.235 130.709 428.874 130.656 429.514 130.549C430.153 130.421 430.643 130.325 430.984 130.261L433.125 140.393C432.443 140.606 431.485 140.851 430.249 141.128C429.013 141.426 427.511 141.607 425.742 141.671C422.461 141.799 419.585 141.362 417.113 140.361C414.663 139.359 412.756 137.804 411.392 135.695C410.029 133.585 409.357 130.922 409.379 127.705V80.1477ZM455.098 141.927C451.966 141.927 449.175 141.384 446.724 140.297C444.274 139.189 442.335 137.559 440.907 135.407C439.501 133.234 438.798 130.528 438.798 127.289C438.798 124.562 439.299 122.271 440.3 120.418C441.302 118.564 442.665 117.072 444.391 115.943C446.117 114.814 448.077 113.962 450.272 113.386C452.488 112.811 454.81 112.406 457.239 112.172C460.094 111.874 462.395 111.597 464.143 111.341C465.89 111.064 467.157 110.659 467.946 110.126C468.734 109.594 469.128 108.805 469.128 107.761V107.57C469.128 105.545 468.489 103.979 467.211 102.871C465.954 101.763 464.164 101.21 461.841 101.21C459.391 101.21 457.442 101.753 455.993 102.839C454.544 103.905 453.585 105.247 453.116 106.866L440.524 105.844C441.163 102.861 442.42 100.283 444.295 98.1094C446.17 95.9148 448.589 94.2315 451.55 93.0597C454.533 91.8665 457.985 91.2699 461.905 91.2699C464.633 91.2699 467.243 91.5895 469.736 92.2287C472.25 92.8679 474.476 93.8587 476.415 95.201C478.376 96.5433 479.92 98.2692 481.05 100.379C482.179 102.467 482.743 104.97 482.743 107.889V141H469.832V134.192H469.448C468.66 135.727 467.605 137.08 466.284 138.251C464.963 139.402 463.376 140.308 461.522 140.968C459.668 141.607 457.527 141.927 455.098 141.927ZM458.997 132.531C461 132.531 462.768 132.136 464.302 131.348C465.836 130.538 467.04 129.452 467.914 128.088C468.787 126.724 469.224 125.18 469.224 123.454V118.244C468.798 118.521 468.212 118.777 467.466 119.011C466.742 119.224 465.922 119.427 465.006 119.619C464.089 119.789 463.173 119.949 462.257 120.098C461.341 120.226 460.51 120.343 459.764 120.45C458.166 120.684 456.77 121.057 455.577 121.568C454.384 122.08 453.457 122.772 452.797 123.646C452.136 124.498 451.806 125.563 451.806 126.842C451.806 128.695 452.477 130.112 453.819 131.092C455.183 132.051 456.909 132.531 458.997 132.531ZM529.07 94.37C528.814 91.7919 527.717 89.7891 525.778 88.3615C523.839 86.9339 521.208 86.2202 517.884 86.2202C515.625 86.2202 513.718 86.5398 512.163 87.179C510.607 87.7969 509.414 88.6598 508.583 89.7678C507.774 90.8757 507.369 92.1328 507.369 93.5391C507.326 94.7109 507.571 95.7337 508.104 96.6072C508.658 97.4808 509.414 98.2372 510.373 98.8764C511.332 99.4943 512.44 100.038 513.697 100.506C514.954 100.954 516.296 101.337 517.724 101.657L523.605 103.063C526.46 103.702 529.08 104.555 531.467 105.62C533.853 106.685 535.92 107.996 537.667 109.551C539.414 111.107 540.767 112.939 541.726 115.048C542.706 117.158 543.207 119.576 543.228 122.303C543.207 126.309 542.184 129.782 540.16 132.722C538.157 135.641 535.259 137.911 531.467 139.53C527.695 141.128 523.146 141.927 517.82 141.927C512.536 141.927 507.933 141.117 504.013 139.498C500.114 137.879 497.067 135.482 494.872 132.307C492.699 129.111 491.559 125.158 491.453 120.45H504.844C504.993 122.644 505.622 124.477 506.73 125.947C507.859 127.396 509.361 128.493 511.236 129.239C513.132 129.963 515.274 130.325 517.66 130.325C520.004 130.325 522.039 129.984 523.764 129.303C525.512 128.621 526.865 127.673 527.823 126.458C528.782 125.244 529.262 123.848 529.262 122.271C529.262 120.801 528.825 119.565 527.951 118.564C527.099 117.562 525.842 116.71 524.18 116.007C522.539 115.304 520.526 114.665 518.139 114.089L511.012 112.3C505.494 110.957 501.137 108.859 497.941 106.004C494.744 103.148 493.157 99.3026 493.178 94.4659C493.157 90.5028 494.212 87.0405 496.343 84.0788C498.494 81.1172 501.445 78.8054 505.195 77.1435C508.945 75.4815 513.207 74.6506 517.98 74.6506C522.838 74.6506 527.078 75.4815 530.7 77.1435C534.343 78.8054 537.177 81.1172 539.201 84.0788C541.225 87.0405 542.269 90.4709 542.333 94.37H529.07ZM584.721 159.409V133.138H584.305C583.666 134.501 582.76 135.854 581.588 137.197C580.438 138.518 578.936 139.615 577.082 140.489C575.25 141.362 573.012 141.799 570.37 141.799C566.642 141.799 563.265 140.84 560.239 138.923C557.235 136.984 554.848 134.139 553.08 130.389C551.333 126.618 550.459 121.994 550.459 116.518C550.459 110.893 551.365 106.217 553.176 102.488C554.987 98.7379 557.395 95.9361 560.399 94.0824C563.424 92.2074 566.738 91.2699 570.338 91.2699C573.087 91.2699 575.377 91.7386 577.21 92.6761C579.064 93.5923 580.555 94.7429 581.684 96.1278C582.835 97.4915 583.708 98.8338 584.305 100.155H584.88V91.9091H598.304V159.409H584.721ZM574.685 130.964C576.88 130.964 578.733 130.368 580.246 129.175C581.78 127.96 582.952 126.266 583.762 124.093C584.593 121.92 585.008 119.374 585.008 116.455C585.008 113.536 584.603 111 583.794 108.848C582.984 106.696 581.812 105.034 580.278 103.862C578.744 102.69 576.88 102.104 574.685 102.104C572.448 102.104 570.562 102.712 569.028 103.926C567.494 105.141 566.333 106.824 565.544 108.976C564.756 111.128 564.362 113.621 564.362 116.455C564.362 119.31 564.756 121.835 565.544 124.029C566.354 126.202 567.515 127.907 569.028 129.143C570.562 130.357 572.448 130.964 574.685 130.964ZM640.715 120.098V91.9091H654.33V141H641.258V132.083H640.747C639.639 134.96 637.796 137.271 635.218 139.018C632.661 140.766 629.539 141.639 625.853 141.639C622.572 141.639 619.685 140.893 617.192 139.402C614.699 137.911 612.75 135.79 611.343 133.042C609.958 130.293 609.255 127.001 609.234 123.166V91.9091H622.849V120.737C622.87 123.635 623.648 125.925 625.182 127.609C626.716 129.292 628.772 130.134 631.35 130.134C632.991 130.134 634.525 129.761 635.953 129.015C637.38 128.248 638.531 127.119 639.404 125.627C640.299 124.136 640.736 122.293 640.715 120.098ZM679.219 141.927C676.087 141.927 673.296 141.384 670.845 140.297C668.395 139.189 666.456 137.559 665.029 135.407C663.622 133.234 662.919 130.528 662.919 127.289C662.919 124.562 663.42 122.271 664.421 120.418C665.423 118.564 666.786 117.072 668.512 115.943C670.238 114.814 672.198 113.962 674.393 113.386C676.609 112.811 678.931 112.406 681.36 112.172C684.215 111.874 686.517 111.597 688.264 111.341C690.011 111.064 691.279 110.659 692.067 110.126C692.855 109.594 693.249 108.805 693.249 107.761V107.57C693.249 105.545 692.61 103.979 691.332 102.871C690.075 101.763 688.285 101.21 685.963 101.21C683.512 101.21 681.563 101.753 680.114 102.839C678.665 103.905 677.706 105.247 677.237 106.866L664.645 105.844C665.284 102.861 666.541 100.283 668.416 98.1094C670.291 95.9148 672.71 94.2315 675.671 93.0597C678.654 91.8665 682.106 91.2699 686.026 91.2699C688.754 91.2699 691.364 91.5895 693.857 92.2287C696.371 92.8679 698.597 93.8587 700.536 95.201C702.497 96.5433 704.041 98.2692 705.171 100.379C706.3 102.467 706.865 104.97 706.865 107.889V141H693.953V134.192H693.569C692.781 135.727 691.726 137.08 690.405 138.251C689.084 139.402 687.497 140.308 685.643 140.968C683.789 141.607 681.648 141.927 679.219 141.927ZM683.118 132.531C685.121 132.531 686.889 132.136 688.423 131.348C689.958 130.538 691.161 129.452 692.035 128.088C692.909 126.724 693.345 125.18 693.345 123.454V118.244C692.919 118.521 692.333 118.777 691.588 119.011C690.863 119.224 690.043 119.427 689.127 119.619C688.21 119.789 687.294 119.949 686.378 120.098C685.462 120.226 684.631 120.343 683.885 120.45C682.287 120.684 680.892 121.057 679.698 121.568C678.505 122.08 677.578 122.772 676.918 123.646C676.257 124.498 675.927 125.563 675.927 126.842C675.927 128.695 676.598 130.112 677.941 131.092C679.304 132.051 681.03 132.531 683.118 132.531ZM717.427 141V91.9091H730.627V100.474H731.138C732.033 97.4276 733.535 95.1264 735.645 93.571C737.754 91.9943 740.183 91.206 742.932 91.206C743.613 91.206 744.349 91.2486 745.137 91.3338C745.925 91.419 746.618 91.5362 747.214 91.6854V103.766C746.575 103.575 745.691 103.404 744.562 103.255C743.432 103.106 742.399 103.031 741.461 103.031C739.459 103.031 737.669 103.468 736.092 104.342C734.537 105.194 733.301 106.387 732.385 107.921C731.49 109.455 731.042 111.224 731.042 113.227V141H717.427ZM774.341 141.959C769.291 141.959 764.944 140.936 761.301 138.891C757.679 136.824 754.887 133.905 752.927 130.134C750.967 126.341 749.987 121.856 749.987 116.678C749.987 111.629 750.967 107.197 752.927 103.383C754.887 99.5689 757.647 96.5966 761.205 94.4659C764.784 92.3352 768.982 91.2699 773.797 91.2699C777.036 91.2699 780.051 91.7919 782.842 92.8359C785.654 93.8587 788.105 95.4034 790.193 97.4702C792.302 99.5369 793.943 102.136 795.115 105.268C796.287 108.379 796.873 112.023 796.873 116.199V119.938H755.42V111.501H784.056C784.056 109.54 783.63 107.804 782.778 106.291C781.926 104.778 780.743 103.596 779.23 102.744C777.739 101.87 776.002 101.433 774.021 101.433C771.954 101.433 770.122 101.913 768.524 102.871C766.947 103.809 765.711 105.077 764.816 106.675C763.922 108.251 763.463 110.009 763.442 111.948V119.97C763.442 122.399 763.89 124.498 764.784 126.266C765.701 128.035 766.99 129.398 768.652 130.357C770.314 131.316 772.284 131.795 774.564 131.795C776.077 131.795 777.462 131.582 778.719 131.156C779.976 130.73 781.052 130.091 781.947 129.239C782.842 128.386 783.524 127.342 783.993 126.107L796.585 126.938C795.946 129.963 794.635 132.605 792.654 134.864C790.694 137.101 788.158 138.848 785.047 140.105C781.958 141.341 778.389 141.959 774.341 141.959Z" fill="black"/>
<defs>
<linearGradient id="paint0_linear_2_23" x1="223" y1="118" x2="0" y2="118" gradientUnits="userSpaceOnUse">
<stop stop-color="#C2E4D6"/>
<stop offset="0.685" stop-color="#BFE0D2"/>
<stop offset="0.885" stop-color="#BDDED0"/>
<stop offset="0.9999" stop-color="#BDDED0"/>
<stop offset="1" stop-color="#6B7E76"/>
</linearGradient>
</defs>
</svg>
