<svg width="534" height="174" viewBox="0 0 534 174" fill="none" xmlns="http://www.w3.org/2000/svg">
<g filter="url(#filter0_d_159_3599)">
<rect x="33" y="0.806641" width="141.878" height="141.878" rx="27.6155" fill="#9DD3C2"/>
<path d="M155.116 69.8523V30.5626C155.116 25.1826 150.94 20.8213 145.788 20.8213H61.8363C56.6846 20.8213 52.5083 25.1826 52.5083 30.5626V113.688C52.5083 119.068 56.6846 123.429 61.8363 123.429H122.468" stroke="black" stroke-width="5.82712" stroke-linecap="round"/>
</g>
<path d="M214.09 93.0093H199.417V49.709H214.386C218.685 49.709 222.378 50.5758 225.465 52.3095C228.566 54.0291 230.948 56.5028 232.611 59.7306C234.274 62.9584 235.106 66.8205 235.106 71.3168C235.106 75.8273 234.267 79.7034 232.59 82.9453C230.927 86.1872 228.523 88.675 225.38 90.4087C222.251 92.1424 218.488 93.0093 214.09 93.0093ZM207.261 86.2225H213.709C216.726 86.2225 219.242 85.6727 221.257 84.5733C223.273 83.4598 224.788 81.8036 225.803 79.6048C226.818 77.3918 227.325 74.6292 227.325 71.3168C227.325 68.0045 226.818 65.2559 225.803 63.0712C224.788 60.8723 223.287 59.2302 221.3 58.1449C219.326 57.0455 216.874 56.4958 213.942 56.4958H207.261V86.2225ZM251.565 93.6647C249.507 93.6647 247.654 93.2982 246.005 92.5653C244.37 91.8182 243.073 90.7188 242.115 89.267C241.17 87.8152 240.698 86.0251 240.698 83.8968C240.698 82.0644 241.036 80.5492 241.713 79.3511C242.389 78.153 243.313 77.1945 244.483 76.4757C245.652 75.7568 246.97 75.2141 248.436 74.8477C249.916 74.4671 251.446 74.1922 253.024 74.0231C254.927 73.8258 256.47 73.6496 257.654 73.4945C258.838 73.3254 259.698 73.0717 260.234 72.7334C260.784 72.381 261.058 71.8384 261.058 71.1054V70.9785C261.058 69.3858 260.586 68.1525 259.642 67.2786C258.698 66.4047 257.337 65.9677 255.561 65.9677C253.687 65.9677 252.2 66.3765 251.1 67.194C250.015 68.0115 249.282 68.977 248.901 70.0906L241.755 69.0757C242.319 67.1024 243.249 65.4532 244.546 64.1283C245.843 62.7893 247.428 61.7885 249.303 61.126C251.178 60.4495 253.25 60.1112 255.519 60.1112C257.084 60.1112 258.641 60.2944 260.192 60.6609C261.742 61.0274 263.159 61.6335 264.441 62.4792C265.724 63.3108 266.753 64.4454 267.528 65.8831C268.317 67.3209 268.712 69.118 268.712 71.2745V93.0093H261.354V88.5482H261.101C260.636 89.4503 259.98 90.296 259.134 91.0853C258.303 91.8605 257.253 92.4878 255.984 92.967C254.73 93.4321 253.257 93.6647 251.565 93.6647ZM253.553 88.0407C255.089 88.0407 256.421 87.7377 257.549 87.1316C258.676 86.5114 259.543 85.6939 260.149 84.679C260.77 83.6642 261.08 82.5577 261.08 81.3596V77.5328C260.84 77.7301 260.431 77.9134 259.853 78.0825C259.29 78.2516 258.655 78.3996 257.95 78.5265C257.246 78.6534 256.548 78.7661 255.857 78.8648C255.167 78.9635 254.568 79.048 254.06 79.1185C252.919 79.2735 251.897 79.5273 250.995 79.8796C250.092 80.232 249.381 80.7253 248.859 81.3596C248.338 81.9798 248.077 82.7832 248.077 83.7699C248.077 85.1794 248.591 86.2436 249.62 86.9625C250.649 87.6813 251.96 88.0407 253.553 88.0407ZM292.625 60.534V66.454H273.956V60.534H292.625ZM278.565 52.7535H286.218V83.2413C286.218 84.2703 286.373 85.0596 286.683 85.6093C287.008 86.1449 287.431 86.5114 287.952 86.7087C288.474 86.9061 289.051 87.0047 289.686 87.0047C290.165 87.0047 290.602 86.9695 290.997 86.899C291.405 86.8286 291.715 86.7651 291.927 86.7087L293.217 92.6921C292.808 92.8331 292.223 92.9881 291.462 93.1573C290.715 93.3264 289.798 93.4251 288.713 93.4533C286.796 93.5097 285.07 93.2207 283.533 92.5864C281.997 91.938 280.778 90.9373 279.876 89.5842C278.988 88.231 278.551 86.5396 278.565 84.5099V52.7535ZM308.371 93.6647C306.313 93.6647 304.459 93.2982 302.81 92.5653C301.175 91.8182 299.878 90.7188 298.92 89.267C297.975 87.8152 297.503 86.0251 297.503 83.8968C297.503 82.0644 297.842 80.5492 298.518 79.3511C299.195 78.153 300.118 77.1945 301.288 76.4757C302.458 75.7568 303.776 75.2141 305.241 74.8477C306.721 74.4671 308.251 74.1922 309.829 74.0231C311.732 73.8258 313.276 73.6496 314.46 73.4945C315.644 73.3254 316.504 73.0717 317.039 72.7334C317.589 72.381 317.864 71.8384 317.864 71.1054V70.9785C317.864 69.3858 317.392 68.1525 316.447 67.2786C315.503 66.4047 314.143 65.9677 312.367 65.9677C310.492 65.9677 309.005 66.3765 307.905 67.194C306.82 68.0115 306.087 68.977 305.707 70.0906L298.56 69.0757C299.124 67.1024 300.054 65.4532 301.351 64.1283C302.648 62.7893 304.234 61.7885 306.108 61.126C307.983 60.4495 310.055 60.1112 312.324 60.1112C313.889 60.1112 315.446 60.2944 316.997 60.6609C318.547 61.0274 319.964 61.6335 321.247 62.4792C322.529 63.3108 323.558 64.4454 324.333 65.8831C325.123 67.3209 325.517 69.118 325.517 71.2745V93.0093H318.16V88.5482H317.906C317.441 89.4503 316.785 90.296 315.94 91.0853C315.108 91.8605 314.058 92.4878 312.789 92.967C311.535 93.4321 310.062 93.6647 308.371 93.6647ZM310.358 88.0407C311.894 88.0407 313.226 87.7377 314.354 87.1316C315.482 86.5114 316.348 85.6939 316.955 84.679C317.575 83.6642 317.885 82.5577 317.885 81.3596V77.5328C317.645 77.7301 317.236 77.9134 316.659 78.0825C316.095 78.2516 315.46 78.3996 314.756 78.5265C314.051 78.6534 313.353 78.7661 312.663 78.8648C311.972 78.9635 311.373 79.048 310.865 79.1185C309.724 79.2735 308.702 79.5273 307.8 79.8796C306.898 80.232 306.186 80.7253 305.664 81.3596C305.143 81.9798 304.882 82.7832 304.882 83.7699C304.882 85.1794 305.397 86.2436 306.425 86.9625C307.454 87.6813 308.765 88.0407 310.358 88.0407ZM357.083 61.6123C356.886 59.7659 356.055 58.3281 354.589 57.2992C353.137 56.2703 351.248 55.7558 348.922 55.7558C347.287 55.7558 345.885 56.0024 344.715 56.4958C343.545 56.9891 342.65 57.6586 342.03 58.5043C341.41 59.35 341.093 60.3156 341.078 61.4009C341.078 62.303 341.283 63.0853 341.692 63.7477C342.114 64.4102 342.685 64.974 343.404 65.4392C344.123 65.8902 344.919 66.2708 345.793 66.5809C346.667 66.891 347.548 67.1517 348.436 67.3631L352.496 68.378C354.131 68.7586 355.702 69.273 357.21 69.9214C358.733 70.5698 360.093 71.3873 361.291 72.374C362.503 73.3606 363.462 74.5517 364.166 75.9471C364.871 77.3425 365.223 78.9775 365.223 80.8522C365.223 83.3893 364.575 85.6234 363.278 87.5545C361.982 89.4714 360.107 90.9725 357.654 92.0579C355.216 93.1291 352.263 93.6647 348.796 93.6647C345.427 93.6647 342.502 93.1432 340.021 92.1001C337.555 91.0571 335.624 89.5348 334.228 87.5333C332.847 85.5318 332.1 83.0933 331.987 80.2179H339.704C339.817 81.7261 340.282 82.9806 341.1 83.9813C341.917 84.9821 342.981 85.7291 344.292 86.2225C345.617 86.7158 347.097 86.9625 348.732 86.9625C350.438 86.9625 351.932 86.7087 353.214 86.2013C354.511 85.6798 355.526 84.9609 356.259 84.0448C356.992 83.1145 357.365 82.0292 357.379 80.7888C357.365 79.6612 357.034 78.7309 356.386 77.9979C355.737 77.2509 354.828 76.6307 353.658 76.1374C352.503 75.6299 351.149 75.1789 349.599 74.7842L344.673 73.5157C341.107 72.5995 338.288 71.2111 336.216 69.3506C334.158 67.4759 333.129 64.9881 333.129 61.8872C333.129 59.3359 333.819 57.1019 335.201 55.1849C336.596 53.268 338.492 51.7809 340.888 50.7238C343.284 49.6526 345.998 49.117 349.028 49.117C352.101 49.117 354.793 49.6526 357.105 50.7238C359.43 51.7809 361.256 53.2539 362.581 55.1426C363.906 57.0173 364.589 59.1739 364.631 61.6123H357.083ZM393.549 105.187V87.8927H393.232C392.838 88.6821 392.267 89.5207 391.52 90.4087C390.773 91.2826 389.786 92.0297 388.56 92.6499C387.333 93.27 385.79 93.5801 383.929 93.5801C381.378 93.5801 379.095 92.9247 377.079 91.6139C375.064 90.303 373.471 88.4002 372.301 85.9053C371.131 83.4105 370.546 80.38 370.546 76.8139C370.546 73.2056 371.138 70.161 372.322 67.6803C373.52 65.1854 375.134 63.3037 377.164 62.0352C379.194 60.7525 381.456 60.1112 383.951 60.1112C385.853 60.1112 387.418 60.4354 388.644 61.0837C389.871 61.718 390.843 62.4862 391.562 63.3883C392.281 64.2763 392.838 65.115 393.232 65.9043H393.697V60.534H401.224V105.187H393.549ZM386.065 87.3007C387.686 87.3007 389.067 86.8638 390.209 85.9899C391.351 85.1019 392.217 83.8686 392.809 82.2899C393.401 80.7113 393.697 78.8718 393.697 76.7717C393.697 74.6715 393.401 72.8462 392.809 71.2957C392.232 69.7452 391.372 68.5401 390.23 67.6803C389.102 66.8205 387.714 66.3906 386.065 66.3906C384.359 66.3906 382.936 66.8346 381.794 67.7226C380.652 68.6106 379.793 69.8368 379.215 71.4014C378.637 72.966 378.348 74.756 378.348 76.7717C378.348 78.8014 378.637 80.6126 379.215 82.2053C379.807 83.784 380.673 85.0314 381.815 85.9476C382.971 86.8497 384.388 87.3007 386.065 87.3007ZM429.788 79.3511V60.534H437.442V93.0093H430.021V87.2373H429.682C428.949 89.0556 427.744 90.5426 426.067 91.6984C424.404 92.8542 422.353 93.4321 419.914 93.4321C417.786 93.4321 415.904 92.9599 414.269 92.0156C412.648 91.0571 411.38 89.6687 410.464 87.8505C409.547 86.0181 409.089 83.8051 409.089 81.2116V60.534H416.743V80.0276C416.743 82.0855 417.307 83.7206 418.434 84.9328C419.562 86.1449 421.042 86.751 422.874 86.751C424.002 86.751 425.094 86.4762 426.152 85.9265C427.209 85.3768 428.076 84.5592 428.752 83.4739C429.443 82.3745 429.788 81.0002 429.788 79.3511ZM454.657 93.6647C452.599 93.6647 450.746 93.2982 449.097 92.5653C447.462 91.8182 446.165 90.7188 445.206 89.267C444.262 87.8152 443.79 86.0251 443.79 83.8968C443.79 82.0644 444.128 80.5492 444.805 79.3511C445.481 78.153 446.404 77.1945 447.574 76.4757C448.744 75.7568 450.062 75.2141 451.528 74.8477C453.008 74.4671 454.537 74.1922 456.116 74.0231C458.019 73.8258 459.562 73.6496 460.746 73.4945C461.93 73.3254 462.79 73.0717 463.326 72.7334C463.875 72.381 464.15 71.8384 464.15 71.1054V70.9785C464.15 69.3858 463.678 68.1525 462.734 67.2786C461.789 66.4047 460.429 65.9677 458.653 65.9677C456.779 65.9677 455.291 66.3765 454.192 67.194C453.107 68.0115 452.374 68.977 451.993 70.0906L444.847 69.0757C445.411 67.1024 446.341 65.4532 447.638 64.1283C448.935 62.7893 450.52 61.7885 452.395 61.126C454.27 60.4495 456.342 60.1112 458.611 60.1112C460.175 60.1112 461.733 60.2944 463.283 60.6609C464.834 61.0274 466.25 61.6335 467.533 62.4792C468.816 63.3108 469.845 64.4454 470.62 65.8831C471.409 67.3209 471.804 69.118 471.804 71.2745V93.0093H464.446V88.5482H464.193C463.727 89.4503 463.072 90.296 462.226 91.0853C461.395 91.8605 460.345 92.4878 459.076 92.967C457.822 93.4321 456.349 93.6647 454.657 93.6647ZM456.645 88.0407C458.181 88.0407 459.513 87.7377 460.641 87.1316C461.768 86.5114 462.635 85.6939 463.241 84.679C463.861 83.6642 464.171 82.5577 464.171 81.3596V77.5328C463.932 77.7301 463.523 77.9134 462.945 78.0825C462.381 78.2516 461.747 78.3996 461.042 78.5265C460.338 78.6534 459.64 78.7661 458.949 78.8648C458.259 78.9635 457.659 79.048 457.152 79.1185C456.01 79.2735 454.988 79.5273 454.086 79.8796C453.184 80.232 452.472 80.7253 451.951 81.3596C451.429 81.9798 451.169 82.7832 451.169 83.7699C451.169 85.1794 451.683 86.2436 452.712 86.9625C453.741 87.6813 455.052 88.0407 456.645 88.0407ZM479.5 93.0093V60.534H486.921V65.9466H487.259C487.851 64.0719 488.866 62.6272 490.304 61.6123C491.756 60.5834 493.412 60.0689 495.272 60.0689C495.695 60.0689 496.167 60.09 496.689 60.1323C497.225 60.1605 497.669 60.2098 498.021 60.2803V67.3209C497.697 67.2081 497.182 67.1094 496.478 67.0249C495.787 66.9262 495.117 66.8769 494.469 66.8769C493.074 66.8769 491.819 67.1799 490.706 67.786C489.606 68.378 488.739 69.2026 488.105 70.2597C487.471 71.3168 487.154 72.5361 487.154 73.9174V93.0093H479.5ZM516.146 93.6436C512.89 93.6436 510.078 92.967 507.71 91.6139C505.356 90.2466 503.545 88.3156 502.276 85.8207C501.007 83.3118 500.373 80.3589 500.373 76.9619C500.373 73.6214 501.007 70.6896 502.276 68.1666C503.559 65.6294 505.349 63.6561 507.646 62.2466C509.944 60.823 512.643 60.1112 515.744 60.1112C517.745 60.1112 519.634 60.4354 521.41 61.0837C523.2 61.718 524.779 62.7047 526.146 64.0437C527.527 65.3828 528.613 67.0883 529.402 69.1603C530.191 71.2182 530.586 73.6707 530.586 76.5179V78.8648H503.967V73.706H523.25C523.235 72.2401 522.918 70.9363 522.298 69.7946C521.678 68.6388 520.811 67.7296 519.698 67.0671C518.598 66.4047 517.315 66.0734 515.85 66.0734C514.285 66.0734 512.911 66.454 511.727 67.2151C510.543 67.9622 509.62 68.9488 508.957 70.1751C508.309 71.3873 507.977 72.7193 507.963 74.1711V78.6745C507.963 80.5633 508.309 82.1842 508.999 83.5373C509.69 84.8764 510.656 85.9053 511.896 86.6242C513.136 87.3289 514.588 87.6813 516.251 87.6813C517.365 87.6813 518.373 87.5263 519.275 87.2162C520.177 86.892 520.959 86.4198 521.622 85.7996C522.284 85.1794 522.784 84.4112 523.123 83.495L530.269 84.2985C529.818 86.1872 528.958 87.8364 527.69 89.2459C526.435 90.6413 524.828 91.7266 522.869 92.5019C520.91 93.263 518.669 93.6436 516.146 93.6436Z" fill="black"/>
<defs>
<filter id="filter0_d_159_3599" x="0.0641184" y="0.806641" width="174.813" height="172.28" filterUnits="userSpaceOnUse" color-interpolation-filters="sRGB">
<feFlood flood-opacity="0" result="BackgroundImageFix"/>
<feColorMatrix in="SourceAlpha" type="matrix" values="0 0 0 0 0 0 0 0 0 0 0 0 0 0 0 0 0 0 127 0" result="hardAlpha"/>
<feOffset dx="-17.7347" dy="15.2012"/>
<feGaussianBlur stdDeviation="7.60059"/>
<feColorMatrix type="matrix" values="0 0 0 0 0 0 0 0 0 0 0 0 0 0 0 0 0 0 0.3 0"/>
<feBlend mode="normal" in2="BackgroundImageFix" result="effect1_dropShadow_159_3599"/>
<feBlend mode="normal" in="SourceGraphic" in2="effect1_dropShadow_159_3599" result="shape"/>
</filter>
</defs>
</svg>
